<svg width="21" height="20" viewBox="0 0 21 20" fill="none" xmlns="http://www.w3.org/2000/svg">
<g clip-path="url(#clip0_2_1313)">
<path d="M16.3372 4.48151C17.8084 6.33942 17.6161 8.96866 17.6161 10.708H19.7638C19.7638 8.89389 19.7988 8.43399 19.6266 7.66541C19.2452 5.95169 18.0747 4.71176 16.3372 4.48151Z" fill="#4888FF" fill-opacity="0.5"/>
<path d="M2.73335 10.708C2.73335 8.86536 2.70848 8.33313 2.84169 7.44492C2.99748 6.40396 3.35606 5.30472 4.0125 4.48196C2.44893 4.66888 1.13957 5.79407 0.722855 7.66495C0.550735 8.4343 0.585831 8.89313 0.585831 10.708H2.73335Z" fill="#4888FF" fill-opacity="0.5"/>
<path d="M4.03083 7.62329C3.91242 8.41354 3.93592 8.86841 3.93592 10.708H5.55518V10.0835C5.55518 8.70025 6.68082 7.57477 8.06403 7.57477H12.2855C13.6687 7.57477 14.7944 8.70025 14.7944 10.0835V10.708H16.4136C16.4136 8.87695 16.4371 8.41446 16.3187 7.62329C16.1072 6.20895 15.3677 4.4519 13.9846 4.4519C5.76575 4.4519 6.2725 4.43756 6.05384 4.48517C5.06308 4.69955 4.28824 5.90164 4.03083 7.62329Z" fill="#4888FF" fill-opacity="0.5"/>
<path d="M14.6512 13.1302H18.1397C18.4719 13.1302 18.7409 13.3997 18.7409 13.7315V18.0785C18.7409 18.4105 18.4717 18.6797 18.1397 18.6797H2.12726C1.79523 18.6797 1.52606 18.4105 1.52606 18.0785V13.7315C1.52606 13.3997 1.79507 13.1302 2.12726 13.1302H5.69827C5.53561 12.6599 5.55515 12.336 5.55515 11.9106H0.585815V19.3326C0.585815 19.6648 0.85498 19.9339 1.18701 19.9339H19.1625C19.4945 19.9339 19.7638 19.6648 19.7638 19.3326V11.9106H14.7943C14.7943 12.3322 14.8145 12.6581 14.6512 13.1302Z" fill="#4888FF" fill-opacity="0.5"/>
<path d="M2.72864 14.3327V17.4773H2.73337H17.5384V14.3327C15.9765 14.3327 16.9208 14.3327 13.7914 14.3327C13.4728 14.5821 13.0952 14.7595 12.6832 14.8398C12.6832 16.0767 11.9196 16.7024 11.0499 16.7024H9.22598C8.40674 16.7024 7.59222 16.1357 7.59222 14.8241C7.20908 14.738 6.85797 14.5673 6.5589 14.3327C6.03598 14.3327 3.01505 14.3327 2.72864 14.3327Z" fill="#4888FF" fill-opacity="0.5"/>
<path d="M12.2855 8.77716H8.064C7.34409 8.77716 6.75769 9.36325 6.75769 10.0835V12.2769C6.75769 13.0148 7.3392 13.6853 8.19339 13.6853C8.52313 13.6853 8.79474 13.9529 8.79474 14.2867V15.069C8.79474 15.3067 8.98792 15.4999 9.22595 15.4999H11.0498C11.2874 15.4999 11.4806 15.3067 11.4806 15.069C11.4806 14.6115 11.4806 14.7412 11.4806 14.2867C11.4806 14.0366 11.6338 13.822 11.8511 13.7315C12.1164 13.6212 12.7741 13.8234 13.3033 13.1302C13.6302 12.7025 13.5918 12.3201 13.5918 11.9106C13.5918 11.3007 13.5918 10.692 13.5918 10.0835C13.5918 9.36325 13.0054 8.77716 12.2855 8.77716ZM9.1611 11.0992C9.1611 11.4325 8.89056 11.7004 8.55975 11.7004C8.22879 11.7004 7.95856 11.4322 7.95856 11.0992C7.95856 10.8376 7.95856 10.6645 7.95856 10.3954C7.95856 10.0635 8.22787 9.79416 8.55975 9.79416C8.89163 9.79416 9.1611 10.0635 9.1611 10.3954V11.0992ZM10.7759 12.9675C10.7759 13.299 10.5068 13.5687 10.1747 13.5687C9.84286 13.5687 9.57355 13.2993 9.57355 12.9675C9.57355 12.2527 9.53891 12.1181 9.70859 11.9106C9.81845 11.7751 9.98676 11.6884 10.1747 11.6884C10.5063 11.6884 10.7759 11.9579 10.7759 12.2897V12.9675ZM12.2791 11.3092C12.1941 11.5378 11.9741 11.7004 11.7156 11.7004C11.3845 11.7004 11.1142 11.4322 11.1142 11.0992C11.1142 10.8376 11.1142 10.6645 11.1142 10.3954C11.1142 10.0635 11.3837 9.79416 11.7156 9.79416C12.0478 9.79416 12.3168 10.0635 12.3168 10.3954C12.3168 11.1607 12.3278 11.1794 12.2791 11.3092Z" fill="#4888FF" fill-opacity="0.5"/>
<path d="M19.434 1.97052H19.0694V1.60599C19.0694 1.27396 18.8003 1.00479 18.4682 1.00479C18.1362 1.00479 17.8669 1.27396 17.8669 1.60599V1.97052H17.5025C17.1705 1.97052 16.9013 2.23969 16.9013 2.57172C16.9013 2.90375 17.1705 3.17291 17.5025 3.17291H17.8669V3.53745C17.8669 3.86948 18.1362 4.13864 18.4682 4.13864C18.8003 4.13864 19.0694 3.86948 19.0694 3.53745V3.17291H19.434C19.766 3.17291 20.0352 2.90375 20.0352 2.57172C20.0352 2.23969 19.766 1.97052 19.434 1.97052Z" fill="#4888FF" fill-opacity="0.5"/>
<path d="M13.8705 2.20734H14.235V2.57172C14.235 2.90375 14.5042 3.17291 14.8362 3.17291C15.1682 3.17291 15.4374 2.90375 15.4374 2.57172V2.20734H15.8019C16.134 2.20734 16.4031 1.93802 16.4031 1.60599C16.4031 1.27396 16.134 1.00479 15.8019 1.00479H15.4374V0.640259C15.4374 0.308228 15.1682 0.0390625 14.8362 0.0390625C14.5042 0.0390625 14.235 0.308228 14.235 0.640259V1.00479H13.8705C13.5385 1.00479 13.2693 1.27396 13.2693 1.60599C13.2693 1.93802 13.5385 2.20734 13.8705 2.20734Z" fill="#4888FF" fill-opacity="0.5"/>
<path d="M4.26843 2.20734H4.63297V2.57172C4.63297 2.90375 4.90213 3.17291 5.23416 3.17291C5.56619 3.17291 5.83536 2.90375 5.83536 2.57172V2.20734H6.19989C6.53192 2.20734 6.80109 1.93802 6.80109 1.60599C6.80109 1.27396 6.53192 1.00479 6.19989 1.00479H5.83536V0.640259C5.83536 0.308228 5.56619 0.0390625 5.23416 0.0390625C4.90213 0.0390625 4.63297 0.308228 4.63297 0.640259V1.00479H4.26843C3.9364 1.00479 3.66724 1.27396 3.66724 1.60599C3.66724 1.93802 3.9364 2.20734 4.26843 2.20734Z" fill="#4888FF" fill-opacity="0.5"/>
<path d="M1.00089 3.17291V3.53745C1.00089 3.86948 1.27005 4.13864 1.60208 4.13864C1.93411 4.13864 2.20343 3.86948 2.20343 3.53745V3.17291H2.56781C2.89984 3.17291 3.16901 2.90375 3.16901 2.57172C3.16901 2.23969 2.89984 1.97052 2.56781 1.97052H2.20343V1.60599C2.20343 1.27396 1.93411 1.00479 1.60208 1.00479C1.27005 1.00479 1.00089 1.27396 1.00089 1.60599V1.97052H0.636353C0.304321 1.97052 0.0351562 2.23969 0.0351562 2.57172C0.0351562 2.90375 0.304321 3.17291 0.636353 3.17291H1.00089Z" fill="#4888FF" fill-opacity="0.5"/>
</g>
<defs>
<clipPath id="clip0_2_1313">
<rect width="20" height="20" fill="white" transform="translate(0.0351562)"/>
</clipPath>
</defs>
</svg>
